<?xml version="1.0" standalone="no"?>
<!DOCTYPE svg PUBLIC "-//W3C//DTD SVG 20010904//EN"
 "http://www.w3.org/TR/2001/REC-SVG-20010904/DTD/svg10.dtd">
<svg version="1.0" xmlns="http://www.w3.org/2000/svg"
 width="835.000000pt" height="833.000000pt" viewBox="0 0 835.000000 833.000000"
 preserveAspectRatio="xMidYMid meet">

<g transform="translate(0.000000,833.000000) scale(0.100000,-0.100000)"
fill="#000000" stroke="none">
<path d="M3915 8064 c-33 -8 -103 -35 -155 -60 -177 -87 -320 -264 -370 -460
-27 -104 -27 -254 0 -358 63 -248 268 -453 516 -516 94 -24 251 -26 342 -5
261 62 466 263 533 522 26 103 26 253 -1 357 -63 248 -268 453 -516 516 -93
24 -258 26 -349 4z m322 -79 c350 -82 562 -452 460 -802 -31 -107 -76 -182
-162 -268 -128 -128 -266 -186 -445 -186 -253 -1 -469 132 -579 357 -42 86
-61 171 -61 276 0 118 14 176 67 287 37 77 59 108 119 167 80 79 195 145 296
169 72 18 230 18 305 0z"/>
<path d="M1807 7564 c-192 -46 -367 -185 -462 -366 -101 -192 -101 -454 0
-646 128 -243 357 -382 630 -382 329 0 605 212 686 528 26 102 26 253 -1 356
-62 245 -261 444 -506 506 -92 24 -258 26 -347 4z m305 -75 c77 -16 193 -72
255 -123 153 -127 234 -295 234 -490 2 -460 -471 -762 -890 -570 -134 62 -235
162 -301 299 -46 96 -60 159 -60 270 0 111 14 174 60 270 81 168 239 298 412
341 67 16 221 17 290 3z"/>
<path d="M6112 7560 c-231 -61 -418 -233 -498 -462 -36 -99 -44 -275 -19 -381
45 -188 173 -360 341 -457 51 -30 52 -30 235 -32 l184 -2 -175 -6 -175 -5 75
-25 c101 -34 274 -34 395 -2 257 70 453 263 515 508 24 95 26 251 4 344 -44
190 -193 377 -370 465 -151 75 -352 97 -512 55z m353 -80 c170 -43 328 -174
403 -331 50 -105 63 -159 63 -263 1 -111 -15 -185 -63 -286 -32 -67 -57 -101
-117 -161 -132 -132 -271 -190 -456 -190 -186 0 -325 58 -457 191 -123 124
-178 259 -178 435 0 112 14 173 62 274 76 160 241 293 413 335 90 22 237 20
330 -4z"/>
<path d="M3665 6140 c-465 -5 -644 -9 -685 -19 -153 -36 -302 -147 -362 -269
l-33 -67 -3 -1362 -2 -1363 430 0 430 0 0 -1320 0 -1320 715 0 715 0 1 588 c1
323 3 578 6 567 2 -11 11 -56 19 -100 73 -379 346 -734 701 -909 99 -49 181
-79 293 -107 84 -21 118 -24 295 -24 186 0 208 2 310 28 434 110 769 409 929
832 56 145 70 237 71 440 0 147 -4 209 -18 275 -43 199 -119 365 -248 541
l-49 66 0 222 0 221 355 0 356 0 -4 1238 -3 1237 -27 102 c-50 191 -126 321
-214 364 l-48 24 -635 0 c-571 0 -641 -2 -690 -17 -131 -41 -231 -214 -277
-478 -15 -83 -17 -244 -22 -1282 -4 -771 -10 -1190 -16 -1196 -5 -5 -44 -17
-85 -27 -368 -88 -694 -351 -868 -700 -62 -126 -98 -245 -125 -415 -2 -14 -5
239 -6 563 l-1 587 430 0 430 0 -2 1363 -3 1362 -33 67 c-59 121 -209 233
-357 268 -31 7 -179 13 -395 16 -190 2 -412 5 -495 7 -82 1 -433 0 -780 -3z
m1275 -83 c389 -5 418 -9 536 -85 101 -66 170 -166 175 -257 1 -22 1 -610 0
-1307 l-1 -1268 -430 0 -430 0 0 -1320 0 -1320 -635 0 -635 0 0 1320 0 1320
-430 0 -430 0 -1 1268 c-1 697 -1 1285 0 1307 3 52 39 131 82 180 46 52 139
111 218 137 64 21 83 22 701 27 349 4 703 5 785 4 83 -2 305 -4 495 -6z m2642
-117 c76 -21 146 -134 196 -316 l27 -99 3 -1192 3 -1193 -356 0 -355 0 0 -220
0 -221 -62 52 c-166 138 -367 237 -578 284 -45 10 -141 19 -243 22 l-168 5 4
1192 c5 1283 4 1259 57 1424 52 157 114 236 202 257 67 17 1212 21 1270 5z
m-1372 -3244 c0 -13 -84 -431 -97 -483 l-5 -23 144 0 144 0 48 248 c27 136 51
253 54 260 6 18 302 17 302 -2 0 -7 -22 -122 -50 -255 -27 -133 -50 -244 -50
-246 0 -3 41 -5 90 -5 l90 0 0 -140 0 -140 -120 0 c-66 0 -120 -2 -120 -4 0
-2 -18 -87 -39 -190 l-39 -186 159 0 159 0 0 -140 0 -140 -187 0 -188 0 -49
-243 c-27 -133 -51 -248 -54 -255 -3 -9 -42 -12 -149 -12 l-145 0 6 33 c3 17
26 132 50 255 l43 222 -143 0 c-127 0 -143 -2 -148 -17 -3 -10 -26 -125 -52
-255 l-47 -238 -148 0 c-82 0 -149 1 -149 3 0 2 23 115 50 252 28 137 50 250
50 252 0 2 -40 3 -90 3 l-90 0 0 140 0 140 119 0 120 0 10 53 c6 28 23 114 39
190 l28 137 -158 0 -158 0 0 140 0 140 187 2 187 3 53 255 c29 140 52 256 53
258 0 1 65 2 145 2 118 0 145 -3 145 -14z"/>
<path d="M6016 1728 c-20 -101 -36 -186 -36 -191 0 -4 64 -6 142 -5 l142 3 31
155 c17 85 34 170 38 188 l7 32 -144 0 -143 0 -37 -182z"/>
<path d="M716 6019 c-117 -28 -204 -154 -263 -382 l-27 -102 -3 -1237 -4
-1238 356 0 355 0 2 -977 3 -978 603 -3 603 -2 -4 2172 c-4 2374 -1 2240 -61
2429 -37 112 -78 187 -134 243 -82 83 -60 80 -767 82 -360 2 -636 -2 -659 -7z
m1277 -83 c94 -22 154 -98 207 -258 56 -173 53 -50 57 -2365 l4 -2133 -526 0
-525 0 0 980 0 980 -355 0 -356 0 3 1193 3 1192 27 99 c49 177 120 294 192
315 17 5 297 10 621 10 467 1 602 -2 648 -13z"/>
</g>
</svg>
